<mxfile host="app.diagrams.net" modified="2023-07-11T22:26:02.896Z" agent="Mozilla/5.0 (Windows NT 10.0; Win64; x64; rv:109.0) Gecko/20100101 Firefox/114.0" etag="JxZ-PkyDGv4sK00mp649" version="21.6.2" type="device">
  <diagram name="PÃ¡gina-1" id="_sOMdx681-rfP5EMU-Si">
    <mxGraphModel dx="712" dy="773" grid="1" gridSize="10" guides="1" tooltips="1" connect="1" arrows="1" fold="1" page="1" pageScale="1" pageWidth="827" pageHeight="1169" math="0" shadow="0">
      <root>
        <mxCell id="0" />
        <mxCell id="1" parent="0" />
        <mxCell id="1s9qs45tCDUaegEGGjbe-43" style="edgeStyle=orthogonalEdgeStyle;rounded=0;orthogonalLoop=1;jettySize=auto;html=1;fillColor=#f8cecc;strokeColor=#b85450;" parent="1" source="1s9qs45tCDUaegEGGjbe-3" target="1s9qs45tCDUaegEGGjbe-12" edge="1">
          <mxGeometry relative="1" as="geometry">
            <Array as="points">
              <mxPoint x="320" y="270" />
            </Array>
          </mxGeometry>
        </mxCell>
        <mxCell id="1s9qs45tCDUaegEGGjbe-3" value="ApiUser" style="rounded=1;whiteSpace=wrap;html=1;fillColor=#ffe6cc;strokeColor=#d79b00;" parent="1" vertex="1">
          <mxGeometry x="270" y="210" width="100" height="40" as="geometry" />
        </mxCell>
        <mxCell id="1s9qs45tCDUaegEGGjbe-6" style="edgeStyle=orthogonalEdgeStyle;rounded=0;orthogonalLoop=1;jettySize=auto;html=1;fillColor=#ffe6cc;strokeColor=#d79b00;" parent="1" source="1s9qs45tCDUaegEGGjbe-7" target="1s9qs45tCDUaegEGGjbe-25" edge="1">
          <mxGeometry relative="1" as="geometry">
            <Array as="points">
              <mxPoint x="230" y="350" />
              <mxPoint x="230" y="350" />
            </Array>
          </mxGeometry>
        </mxCell>
        <mxCell id="1s9qs45tCDUaegEGGjbe-44" style="edgeStyle=orthogonalEdgeStyle;rounded=0;orthogonalLoop=1;jettySize=auto;html=1;fillColor=#f8cecc;strokeColor=#b85450;" parent="1" source="1s9qs45tCDUaegEGGjbe-7" target="1s9qs45tCDUaegEGGjbe-12" edge="1">
          <mxGeometry relative="1" as="geometry">
            <Array as="points">
              <mxPoint x="320" y="280" />
            </Array>
          </mxGeometry>
        </mxCell>
        <mxCell id="1s9qs45tCDUaegEGGjbe-8" value="" style="image;points=[];aspect=fixed;html=1;align=center;shadow=0;dashed=0;image=img/lib/allied_telesis/computer_and_terminals/Personal_Computer.svg;" parent="1" vertex="1">
          <mxGeometry x="570" y="234.1" width="60.36" height="81.8" as="geometry" />
        </mxCell>
        <mxCell id="1s9qs45tCDUaegEGGjbe-9" style="edgeStyle=orthogonalEdgeStyle;rounded=0;orthogonalLoop=1;jettySize=auto;html=1;fillColor=#ffe6cc;strokeColor=#d79b00;" parent="1" source="1s9qs45tCDUaegEGGjbe-10" target="1s9qs45tCDUaegEGGjbe-33" edge="1">
          <mxGeometry relative="1" as="geometry">
            <Array as="points">
              <mxPoint x="210" y="450" />
              <mxPoint x="210" y="450" />
            </Array>
            <mxPoint x="50" y="470" as="sourcePoint" />
            <mxPoint x="150" y="210" as="targetPoint" />
          </mxGeometry>
        </mxCell>
        <mxCell id="1s9qs45tCDUaegEGGjbe-10" value="&lt;div&gt;Feign&lt;br&gt;&lt;/div&gt;&lt;div&gt;Item Client&lt;/div&gt;" style="rounded=0;whiteSpace=wrap;html=1;fillColor=#fff2cc;strokeColor=#d6b656;" parent="1" vertex="1">
          <mxGeometry x="110" y="430" width="80" height="30" as="geometry" />
        </mxCell>
        <mxCell id="1s9qs45tCDUaegEGGjbe-11" style="edgeStyle=orthogonalEdgeStyle;rounded=0;orthogonalLoop=1;jettySize=auto;html=1;fillColor=#f8cecc;strokeColor=#b85450;" parent="1" source="1s9qs45tCDUaegEGGjbe-12" target="1s9qs45tCDUaegEGGjbe-8" edge="1">
          <mxGeometry relative="1" as="geometry" />
        </mxCell>
        <mxCell id="1s9qs45tCDUaegEGGjbe-12" value="Gateway" style="rounded=0;whiteSpace=wrap;html=1;fillColor=#f8cecc;strokeColor=#b85450;" parent="1" vertex="1">
          <mxGeometry x="440" y="250" width="90" height="50" as="geometry" />
        </mxCell>
        <mxCell id="1s9qs45tCDUaegEGGjbe-13" style="edgeStyle=orthogonalEdgeStyle;rounded=0;orthogonalLoop=1;jettySize=auto;html=1;fillColor=#d5e8d4;strokeColor=#82b366;" parent="1" source="1s9qs45tCDUaegEGGjbe-17" target="1s9qs45tCDUaegEGGjbe-3" edge="1">
          <mxGeometry relative="1" as="geometry">
            <Array as="points">
              <mxPoint x="230" y="230" />
            </Array>
          </mxGeometry>
        </mxCell>
        <mxCell id="1s9qs45tCDUaegEGGjbe-15" style="edgeStyle=orthogonalEdgeStyle;rounded=0;orthogonalLoop=1;jettySize=auto;html=1;fillColor=#d5e8d4;strokeColor=#82b366;" parent="1" source="1s9qs45tCDUaegEGGjbe-17" target="1s9qs45tCDUaegEGGjbe-12" edge="1">
          <mxGeometry relative="1" as="geometry">
            <Array as="points">
              <mxPoint x="230" y="260" />
            </Array>
          </mxGeometry>
        </mxCell>
        <mxCell id="1s9qs45tCDUaegEGGjbe-16" style="edgeStyle=orthogonalEdgeStyle;rounded=0;orthogonalLoop=1;jettySize=auto;html=1;fillColor=#d5e8d4;strokeColor=#82b366;" parent="1" source="1s9qs45tCDUaegEGGjbe-17" target="1s9qs45tCDUaegEGGjbe-7" edge="1">
          <mxGeometry relative="1" as="geometry">
            <Array as="points">
              <mxPoint x="230" y="330" />
            </Array>
          </mxGeometry>
        </mxCell>
        <mxCell id="1s9qs45tCDUaegEGGjbe-36" style="edgeStyle=orthogonalEdgeStyle;rounded=0;orthogonalLoop=1;jettySize=auto;html=1;fillColor=#d5e8d4;strokeColor=#82b366;" parent="1" source="1s9qs45tCDUaegEGGjbe-17" target="1s9qs45tCDUaegEGGjbe-20" edge="1">
          <mxGeometry relative="1" as="geometry">
            <Array as="points">
              <mxPoint x="150" y="150" />
            </Array>
          </mxGeometry>
        </mxCell>
        <mxCell id="1s9qs45tCDUaegEGGjbe-42" style="edgeStyle=orthogonalEdgeStyle;rounded=0;orthogonalLoop=1;jettySize=auto;html=1;fillColor=#d5e8d4;strokeColor=#82b366;" parent="1" source="1s9qs45tCDUaegEGGjbe-17" target="1s9qs45tCDUaegEGGjbe-33" edge="1">
          <mxGeometry relative="1" as="geometry">
            <Array as="points">
              <mxPoint x="230" y="430" />
            </Array>
          </mxGeometry>
        </mxCell>
        <mxCell id="1s9qs45tCDUaegEGGjbe-17" value="&lt;div&gt;Config&lt;/div&gt;&lt;div&gt;Server&lt;br&gt;&lt;/div&gt;" style="rounded=0;whiteSpace=wrap;html=1;fillColor=#d5e8d4;strokeColor=#82b366;" parent="1" vertex="1">
          <mxGeometry x="185" y="120" width="80" height="40" as="geometry" />
        </mxCell>
        <mxCell id="1s9qs45tCDUaegEGGjbe-39" style="edgeStyle=orthogonalEdgeStyle;rounded=0;orthogonalLoop=1;jettySize=auto;html=1;fillColor=#dae8fc;strokeColor=#6c8ebf;" parent="1" source="1s9qs45tCDUaegEGGjbe-20" target="1s9qs45tCDUaegEGGjbe-33" edge="1">
          <mxGeometry relative="1" as="geometry">
            <Array as="points">
              <mxPoint x="210" y="220" />
              <mxPoint x="210" y="440" />
            </Array>
          </mxGeometry>
        </mxCell>
        <mxCell id="1s9qs45tCDUaegEGGjbe-40" style="edgeStyle=orthogonalEdgeStyle;rounded=0;orthogonalLoop=1;jettySize=auto;html=1;fillColor=#dae8fc;strokeColor=#6c8ebf;" parent="1" source="1s9qs45tCDUaegEGGjbe-20" target="1s9qs45tCDUaegEGGjbe-7" edge="1">
          <mxGeometry relative="1" as="geometry">
            <Array as="points">
              <mxPoint x="210" y="220" />
              <mxPoint x="210" y="340" />
            </Array>
          </mxGeometry>
        </mxCell>
        <mxCell id="1s9qs45tCDUaegEGGjbe-41" style="edgeStyle=orthogonalEdgeStyle;rounded=0;orthogonalLoop=1;jettySize=auto;html=1;fillColor=#dae8fc;strokeColor=#6c8ebf;" parent="1" source="1s9qs45tCDUaegEGGjbe-20" target="1s9qs45tCDUaegEGGjbe-3" edge="1">
          <mxGeometry relative="1" as="geometry">
            <Array as="points">
              <mxPoint x="210" y="220" />
              <mxPoint x="210" y="220" />
            </Array>
          </mxGeometry>
        </mxCell>
        <mxCell id="1s9qs45tCDUaegEGGjbe-20" value="Eureka Server" style="rounded=0;whiteSpace=wrap;html=1;fillColor=#dae8fc;strokeColor=#6c8ebf;" parent="1" vertex="1">
          <mxGeometry x="115" y="190" width="70" height="50" as="geometry" />
        </mxCell>
        <mxCell id="1s9qs45tCDUaegEGGjbe-38" style="edgeStyle=orthogonalEdgeStyle;rounded=0;orthogonalLoop=1;jettySize=auto;html=1;fillColor=#ffe6cc;strokeColor=#d79b00;" parent="1" source="1s9qs45tCDUaegEGGjbe-25" target="1s9qs45tCDUaegEGGjbe-10" edge="1">
          <mxGeometry relative="1" as="geometry" />
        </mxCell>
        <mxCell id="1s9qs45tCDUaegEGGjbe-25" value="&lt;div&gt;Circuit&lt;/div&gt;&lt;div&gt;Breaker&lt;br&gt;&lt;/div&gt;" style="rounded=0;whiteSpace=wrap;html=1;fillColor=#bac8d3;strokeColor=#23445d;" parent="1" vertex="1">
          <mxGeometry x="110" y="340" width="80" height="30" as="geometry" />
        </mxCell>
        <mxCell id="1s9qs45tCDUaegEGGjbe-26" value="" style="edgeStyle=orthogonalEdgeStyle;rounded=0;orthogonalLoop=1;jettySize=auto;html=1;fillColor=#d5e8d4;strokeColor=#82b366;" parent="1" source="1s9qs45tCDUaegEGGjbe-27" target="1s9qs45tCDUaegEGGjbe-17" edge="1">
          <mxGeometry relative="1" as="geometry" />
        </mxCell>
        <mxCell id="1s9qs45tCDUaegEGGjbe-27" value="&lt;div&gt;GitHub&lt;/div&gt;&lt;div&gt;Config&lt;br&gt;&lt;/div&gt;" style="shape=cylinder3;whiteSpace=wrap;html=1;boundedLbl=1;backgroundOutline=1;size=15;fillColor=#d5e8d4;strokeColor=#82b366;" parent="1" vertex="1">
          <mxGeometry x="30" y="100" width="60" height="80" as="geometry" />
        </mxCell>
        <mxCell id="1s9qs45tCDUaegEGGjbe-47" style="edgeStyle=orthogonalEdgeStyle;rounded=0;orthogonalLoop=1;jettySize=auto;html=1;fillColor=#e1d5e7;strokeColor=#9673a6;" parent="1" source="1s9qs45tCDUaegEGGjbe-28" target="1s9qs45tCDUaegEGGjbe-3" edge="1">
          <mxGeometry relative="1" as="geometry">
            <Array as="points">
              <mxPoint x="410" y="230" />
            </Array>
          </mxGeometry>
        </mxCell>
        <mxCell id="1s9qs45tCDUaegEGGjbe-48" style="edgeStyle=orthogonalEdgeStyle;rounded=0;orthogonalLoop=1;jettySize=auto;html=1;fillColor=#e1d5e7;strokeColor=#9673a6;" parent="1" source="1s9qs45tCDUaegEGGjbe-28" target="1s9qs45tCDUaegEGGjbe-7" edge="1">
          <mxGeometry relative="1" as="geometry">
            <Array as="points">
              <mxPoint x="410" y="336" />
            </Array>
          </mxGeometry>
        </mxCell>
        <mxCell id="1s9qs45tCDUaegEGGjbe-49" style="edgeStyle=orthogonalEdgeStyle;rounded=0;orthogonalLoop=1;jettySize=auto;html=1;fillColor=#e1d5e7;strokeColor=#9673a6;" parent="1" source="1s9qs45tCDUaegEGGjbe-28" target="1s9qs45tCDUaegEGGjbe-33" edge="1">
          <mxGeometry relative="1" as="geometry">
            <Array as="points">
              <mxPoint x="410" y="440" />
            </Array>
          </mxGeometry>
        </mxCell>
        <mxCell id="1s9qs45tCDUaegEGGjbe-28" value="" style="swimlane;startSize=0;fillColor=#e1d5e7;strokeColor=#9673a6;strokeWidth=2;" parent="1" vertex="1">
          <mxGeometry x="310" y="30" width="250" height="130" as="geometry" />
        </mxCell>
        <mxCell id="1s9qs45tCDUaegEGGjbe-29" value="Docker" style="text;html=1;align=center;verticalAlign=middle;resizable=0;points=[];autosize=1;strokeColor=none;fillColor=none;" parent="1s9qs45tCDUaegEGGjbe-28" vertex="1">
          <mxGeometry x="190" width="60" height="30" as="geometry" />
        </mxCell>
        <mxCell id="1s9qs45tCDUaegEGGjbe-30" value="Zipkin" style="rhombus;whiteSpace=wrap;html=1;" parent="1s9qs45tCDUaegEGGjbe-28" vertex="1">
          <mxGeometry x="80" y="25" width="80" height="80" as="geometry" />
        </mxCell>
        <mxCell id="1s9qs45tCDUaegEGGjbe-31" value="&lt;div&gt;MySQL&lt;/div&gt;&lt;div&gt;DB&lt;br&gt;&lt;/div&gt;" style="shape=cylinder3;whiteSpace=wrap;html=1;boundedLbl=1;backgroundOutline=1;size=15;fillColor=none;" parent="1s9qs45tCDUaegEGGjbe-28" vertex="1">
          <mxGeometry x="10" y="25" width="60" height="80" as="geometry" />
        </mxCell>
        <mxCell id="1s9qs45tCDUaegEGGjbe-32" value="&lt;div&gt;RabbitMQ&lt;br&gt;&lt;/div&gt;" style="shape=cylinder3;whiteSpace=wrap;html=1;boundedLbl=1;backgroundOutline=1;size=15;fillColor=none;rotation=0;" parent="1s9qs45tCDUaegEGGjbe-28" vertex="1">
          <mxGeometry x="170" y="25" width="60" height="80" as="geometry" />
        </mxCell>
        <mxCell id="1s9qs45tCDUaegEGGjbe-45" style="edgeStyle=orthogonalEdgeStyle;rounded=0;orthogonalLoop=1;jettySize=auto;html=1;fillColor=#f8cecc;strokeColor=#b85450;" parent="1" source="1s9qs45tCDUaegEGGjbe-33" target="1s9qs45tCDUaegEGGjbe-12" edge="1">
          <mxGeometry relative="1" as="geometry">
            <Array as="points">
              <mxPoint x="330" y="290" />
            </Array>
          </mxGeometry>
        </mxCell>
        <mxCell id="1s9qs45tCDUaegEGGjbe-33" value="ApiItem" style="rounded=1;whiteSpace=wrap;html=1;fillColor=#ffe6cc;strokeColor=#d79b00;" parent="1" vertex="1">
          <mxGeometry x="270" y="420" width="100" height="40" as="geometry" />
        </mxCell>
        <mxCell id="1s9qs45tCDUaegEGGjbe-7" value="ApiList" style="rounded=1;whiteSpace=wrap;html=1;fillColor=#ffe6cc;strokeColor=#d79b00;" parent="1" vertex="1">
          <mxGeometry x="270" y="315.9" width="100" height="40" as="geometry" />
        </mxCell>
      </root>
    </mxGraphModel>
  </diagram>
</mxfile>
